<svg width="88" height="67" viewBox="0 0 88 67" fill="none" xmlns="http://www.w3.org/2000/svg">
<path d="M43 66.5L42 66.5L42 0.5L43 0.5L43 66.5Z" fill="#6A59FF" stroke="black"/>
<path d="M84 52.5L84 53.5L1 53.5L1 52.5L84 52.5Z" fill="#6A59FF" stroke="black"/>
<path d="M35.5303 41.7539V41.7559L35.5479 41.6846L35.5771 41.6152L38.0635 35.6465L39.5518 31.1836C40.0595 29.6605 40.8159 27.642 41.4414 26.0156C41.755 25.2003 42.0374 24.4793 42.2412 23.9619C42.3431 23.7032 42.4255 23.4949 42.4824 23.3516C42.5109 23.2799 42.5338 23.2242 42.5488 23.1865C42.5563 23.1678 42.5616 23.1533 42.5654 23.1436C42.5673 23.1388 42.5693 23.1353 42.5703 23.1328C42.5708 23.1317 42.571 23.1305 42.5713 23.1299L46.0684 14.1377L46.085 14.0947L46.1055 14.0527L46.1064 14.0518C46.1068 14.0511 46.1069 14.0499 46.1074 14.0488C46.1086 14.0465 46.1102 14.0432 46.1123 14.0391C46.1165 14.0307 46.123 14.0185 46.1309 14.0029C46.1466 13.9718 46.1697 13.9267 46.1992 13.8691C46.2586 13.7535 46.3445 13.5872 46.4521 13.3838C46.6673 12.9774 46.9706 12.419 47.3223 11.8115C48.0057 10.631 48.9386 9.14735 49.793 8.29297C50.7281 7.35788 52.3073 6.67599 53.8447 6.22754C55.418 5.76867 57.1384 5.5 58.5 5.5H87V7.5H58.5C57.3617 7.5 55.8319 7.73137 54.4053 8.14746C52.9428 8.57401 51.7719 9.14218 51.207 9.70703C50.5614 10.3526 49.7443 11.619 49.0527 12.8135C48.717 13.3935 48.4265 13.9288 48.2197 14.3193C48.1166 14.5142 48.0344 14.6723 47.9785 14.7812C47.9506 14.8357 47.9293 14.8781 47.915 14.9062C47.9143 14.9077 47.9128 14.9088 47.9121 14.9102L44.4316 23.8623L44.4287 23.8711L44.4277 23.8721C44.4275 23.8726 44.4272 23.8739 44.4268 23.875C44.4258 23.8773 44.4246 23.8813 44.4229 23.8857C44.4191 23.895 44.4134 23.9087 44.4062 23.9268C44.3915 23.9637 44.3699 24.019 44.3418 24.0898C44.2855 24.2316 44.2037 24.4377 44.1025 24.6943C43.9002 25.2081 43.6199 25.925 43.3086 26.7344C42.6842 28.3578 41.9405 30.3396 41.4482 31.8164L39.9482 36.3164L39.9375 36.3506L39.9229 36.3848L37.4463 42.3271C37.442 42.3421 37.4382 42.3592 37.4326 42.3779C37.41 42.4542 37.3756 42.562 37.3281 42.7002C37.2331 42.9766 37.0826 43.3766 36.8535 43.9004C36.395 44.9485 35.6215 46.4922 34.3477 48.5303C33.0154 50.6618 31.6416 51.7917 30.5332 52.3828C29.9821 52.6767 29.5073 52.831 29.1523 52.9121C28.9755 52.9525 28.8292 52.9745 28.7188 52.9863C28.6635 52.9922 28.6167 52.9962 28.5801 52.998C28.5618 52.999 28.5456 52.9997 28.5322 53H28.502C28.5012 53 28.5 53 28.5 52V53H0.5V51H28.4775C28.4798 50.9999 28.4895 50.9998 28.5059 50.998C28.5418 50.9942 28.6107 50.9849 28.707 50.9629C28.899 50.919 29.2055 50.8232 29.5918 50.6172C30.3583 50.2084 31.4847 49.3379 32.6523 47.4697C33.8783 45.5082 34.605 44.0515 35.0215 43.0996C35.2297 42.6237 35.3607 42.2734 35.4375 42.0498C35.4758 41.9385 35.5002 41.8583 35.5146 41.8096C35.5219 41.7852 35.5269 41.7684 35.5293 41.7598C35.53 41.7572 35.53 41.7551 35.5303 41.7539Z" fill="#6A59FF" stroke="black"/>
</svg>
