<svg width="89" height="67" viewBox="0 0 89 67" fill="none" xmlns="http://www.w3.org/2000/svg">
<path d="M44 66.5L43 66.5L43 0.5L44 0.5L44 66.5Z" fill="#6A59FF" stroke="black"/>
<path d="M85 52.5L85 53.5L2 53.5L2 52.5L85 52.5Z" fill="#6A59FF" stroke="black"/>
<path d="M36.5303 41.7539V41.7559L36.5479 41.6846L36.5771 41.6152L39.0635 35.6465L40.5518 31.1836C41.0595 29.6605 41.8159 27.642 42.4414 26.0156C42.755 25.2003 43.0374 24.4793 43.2412 23.9619C43.3431 23.7032 43.4255 23.4949 43.4824 23.3516C43.5109 23.2799 43.5338 23.2242 43.5488 23.1865C43.5563 23.1678 43.5616 23.1533 43.5654 23.1436C43.5673 23.1388 43.5693 23.1353 43.5703 23.1328C43.5708 23.1317 43.571 23.1305 43.5713 23.1299L47.0684 14.1377L47.085 14.0947L47.1055 14.0527L47.1064 14.0518C47.1068 14.0511 47.1069 14.0499 47.1074 14.0488C47.1086 14.0465 47.1102 14.0432 47.1123 14.0391C47.1165 14.0307 47.123 14.0185 47.1309 14.0029C47.1466 13.9718 47.1697 13.9267 47.1992 13.8691C47.2586 13.7535 47.3445 13.5872 47.4521 13.3838C47.6673 12.9774 47.9706 12.419 48.3223 11.8115C49.0057 10.631 49.9386 9.14735 50.793 8.29297C51.7281 7.35788 53.3073 6.67599 54.8447 6.22754C56.418 5.76867 58.1384 5.5 59.5 5.5H88V7.5H59.5C58.3617 7.5 56.8319 7.73137 55.4053 8.14746C53.9428 8.57401 52.7719 9.14218 52.207 9.70703C51.5614 10.3526 50.7443 11.619 50.0527 12.8135C49.717 13.3935 49.4265 13.9288 49.2197 14.3193C49.1166 14.5142 49.0344 14.6723 48.9785 14.7812C48.9506 14.8357 48.9293 14.8781 48.915 14.9062C48.9143 14.9077 48.9128 14.9088 48.9121 14.9102L45.4316 23.8623L45.4287 23.8711L45.4277 23.8721C45.4275 23.8726 45.4272 23.8739 45.4268 23.875C45.4258 23.8773 45.4246 23.8813 45.4229 23.8857C45.4191 23.895 45.4134 23.9087 45.4062 23.9268C45.3915 23.9637 45.3699 24.019 45.3418 24.0898C45.2855 24.2316 45.2037 24.4377 45.1025 24.6943C44.9002 25.2081 44.6199 25.925 44.3086 26.7344C43.6842 28.3578 42.9405 30.3396 42.4482 31.8164L40.9482 36.3164L40.9375 36.3506L40.9229 36.3848L38.4463 42.3271C38.442 42.3421 38.4382 42.3592 38.4326 42.3779C38.41 42.4542 38.3756 42.562 38.3281 42.7002C38.2331 42.9766 38.0826 43.3766 37.8535 43.9004C37.395 44.9485 36.6215 46.4922 35.3477 48.5303C34.0154 50.6618 32.6416 51.7917 31.5332 52.3828C30.9821 52.6767 30.5073 52.831 30.1523 52.9121C29.9755 52.9525 29.8292 52.9745 29.7188 52.9863C29.6635 52.9922 29.6167 52.9962 29.5801 52.998C29.5618 52.999 29.5456 52.9997 29.5322 53H29.502C29.5012 53 29.5 53 29.5 52V53H1.5V51H29.4775C29.4798 50.9999 29.4895 50.9998 29.5059 50.998C29.5418 50.9942 29.6107 50.9849 29.707 50.9629C29.899 50.919 30.2055 50.8232 30.5918 50.6172C31.3583 50.2084 32.4847 49.3379 33.6523 47.4697C34.8783 45.5082 35.605 44.0515 36.0215 43.0996C36.2297 42.6236 36.3607 42.2734 36.4375 42.0498C36.4758 41.9385 36.5002 41.8583 36.5146 41.8096C36.5219 41.7852 36.5269 41.7684 36.5293 41.7598C36.53 41.7572 36.53 41.7551 36.5303 41.7539Z" fill="#6A59FF" stroke="black"/>
<path d="M50.4822 41.3723V41.3742L50.4651 41.3037L50.4366 41.2351L48.0222 35.3292L46.5769 30.9132C46.0839 29.4062 45.3493 27.409 44.7419 25.7997C44.4374 24.993 44.1631 24.2795 43.9652 23.7676C43.8662 23.5116 43.7863 23.3055 43.7309 23.1637C43.7033 23.0927 43.6811 23.0377 43.6665 23.0003C43.6592 22.9818 43.6541 22.9674 43.6503 22.9578C43.6485 22.9531 43.6466 22.9497 43.6456 22.9472C43.6451 22.9461 43.6449 22.9449 43.6446 22.9443L40.2486 14.0468L40.2325 14.0043L40.2126 13.9627L40.2117 13.9617C40.2113 13.9611 40.2113 13.9599 40.2107 13.9588C40.2096 13.9566 40.208 13.9533 40.206 13.9492C40.2019 13.9409 40.1956 13.9289 40.188 13.9134C40.1726 13.8826 40.1502 13.838 40.1216 13.781C40.0639 13.6666 39.9805 13.502 39.8759 13.3008C39.667 12.8987 39.3725 12.3461 39.031 11.7451C38.3673 10.577 37.4614 9.10895 36.6317 8.26357C35.7236 7.33832 34.1901 6.66361 32.697 6.21988C31.1692 5.76585 29.4985 5.5 28.1763 5.5H0.500002V7.47895H28.1763C29.2817 7.47895 30.7672 7.70789 32.1527 8.11959C33.5729 8.54165 34.71 9.10384 35.2585 9.66275C35.8854 10.3016 36.679 11.5546 37.3505 12.7365C37.6766 13.3104 37.9587 13.8401 38.1595 14.2265C38.2596 14.4193 38.3394 14.5758 38.3937 14.6836C38.4208 14.7374 38.4415 14.7794 38.4553 14.8072C38.4561 14.8087 38.4575 14.8097 38.4582 14.8111L41.8381 23.669L41.8409 23.6777L41.8419 23.6787C41.8421 23.6792 41.8424 23.6805 41.8428 23.6816C41.8437 23.6839 41.8449 23.6878 41.8466 23.6922C41.8502 23.7014 41.8557 23.715 41.8627 23.7328C41.877 23.7694 41.898 23.8241 41.9253 23.8942C41.98 24.0344 42.0595 24.2383 42.1577 24.4923C42.3542 25.0006 42.6263 25.71 42.9286 26.5109C43.535 28.1172 44.2572 30.0781 44.7352 31.5394L46.1919 35.992L46.2023 36.0258L46.2165 36.0597L48.6215 41.9395C48.6257 41.9543 48.6294 41.9712 48.6348 41.9897C48.6568 42.0652 48.6901 42.1719 48.7363 42.3086C48.8285 42.5821 48.9747 42.9779 49.1972 43.4962C49.6424 44.5332 50.3936 46.0607 51.6306 48.0773C52.9244 50.1864 54.2584 51.3044 55.3348 51.8893C55.87 52.1801 56.3311 52.3328 56.6758 52.413C56.8475 52.453 56.9895 52.4748 57.0968 52.4865C57.1505 52.4923 57.1959 52.4962 57.2315 52.4981C57.2492 52.499 57.265 52.4997 57.278 52.5H57.3074C57.3081 52.5 57.3092 52.5 57.3092 51.5105V52.5H84.5V50.5211H57.3311C57.3288 50.5209 57.3195 50.5208 57.3036 50.5191C57.2687 50.5153 57.2018 50.5061 57.1082 50.4843C56.9218 50.4409 56.6241 50.3461 56.249 50.1423C55.5046 49.7377 54.4108 48.8764 53.2769 47.0279C52.0864 45.087 51.3807 43.6457 50.9762 42.7038C50.774 42.2329 50.6469 41.8863 50.5723 41.6651C50.5351 41.5549 50.5114 41.4756 50.4973 41.4274C50.4903 41.4033 50.4854 41.3866 50.4831 41.3781C50.4824 41.3755 50.4825 41.3734 50.4822 41.3723Z" fill="#56FFC7" stroke="black"/>
</svg>
