<svg width="88" height="74" viewBox="0 0 88 74" fill="none" xmlns="http://www.w3.org/2000/svg">
<path d="M42.5 72.0294L42.5 72.0294L42.5 1L42.5 1L42.5 72.0294Z" fill="#6A59FF" stroke="black" stroke-width="2"/>
<path d="M84 37.2111L84 37.9074L1 37.9074L1 37.2111L84 37.2111Z" fill="#6A59FF" stroke="black"/>
<path d="M35.7328 56.0368V56.0396L35.7504 55.9382L35.7799 55.8396L38.2806 47.3517L39.7775 41.0052C40.2881 38.8393 41.0489 35.969 41.6781 33.6561C41.9934 32.4967 42.2775 31.4714 42.4825 30.7356C42.585 30.3678 42.6678 30.0716 42.7251 29.8677C42.7537 29.7657 42.7768 29.6866 42.7919 29.633C42.7994 29.6063 42.8047 29.5857 42.8086 29.5719C42.8105 29.5651 42.8125 29.5602 42.8135 29.5566C42.814 29.555 42.8142 29.5534 42.8145 29.5524L46.3318 16.7651L46.3485 16.704L46.3691 16.6443L46.3701 16.6429C46.3704 16.6419 46.3705 16.6403 46.371 16.6387C46.3722 16.6354 46.3738 16.6307 46.376 16.6248C46.3802 16.6129 46.3867 16.5956 46.3946 16.5734C46.4105 16.5291 46.4337 16.465 46.4634 16.3832C46.5231 16.2187 46.6095 15.9822 46.7178 15.693C46.9341 15.1151 47.2392 14.321 47.5929 13.4571C48.2803 11.7784 49.2186 9.66853 50.0779 8.45356C51.0184 7.12381 52.6067 6.15413 54.1531 5.51641C55.7354 4.86388 57.4658 4.48181 58.8353 4.48181H87.5V7.32592H58.8353C57.6903 7.32592 56.1518 7.65494 54.7169 8.24664C53.246 8.85322 52.0683 9.66118 51.5001 10.4644C50.8508 11.3825 50.0289 13.1834 49.3334 14.882C48.9957 15.7067 48.7035 16.4681 48.4956 17.0234C48.3918 17.3004 48.3092 17.5253 48.253 17.6802C48.2249 17.7576 48.2034 17.818 48.1891 17.858C48.1884 17.8601 48.1869 17.8616 48.1862 17.8636L44.6856 30.594L44.6826 30.6065L44.6817 30.6079C44.6814 30.6087 44.6811 30.6104 44.6807 30.612C44.6797 30.6153 44.6785 30.6209 44.6767 30.6273C44.673 30.6405 44.6673 30.66 44.66 30.6856C44.6452 30.7382 44.6235 30.8169 44.5952 30.9176C44.5386 31.1191 44.4563 31.4122 44.3546 31.7772C44.151 32.5078 43.8692 33.5272 43.556 34.6782C42.928 36.9868 42.18 39.8051 41.6849 41.9051L40.1763 48.3044L40.1655 48.353L40.1507 48.4016L37.6599 56.852C37.6556 56.8732 37.6517 56.8976 37.6461 56.9242C37.6233 57.0326 37.5888 57.1859 37.541 57.3825C37.4454 57.7755 37.2941 58.3444 37.0637 59.0892C36.6025 60.5796 35.8245 62.7749 34.5433 65.6731C33.2033 68.7043 31.8216 70.311 30.7068 71.1517C30.1525 71.5696 29.6749 71.789 29.318 71.9043C29.1401 71.9618 28.993 71.9931 28.8819 72.0099C28.8263 72.0183 28.7792 72.0239 28.7424 72.0266C28.7241 72.0279 28.7077 72.0289 28.6943 72.0293H28.6638C28.663 72.0293 28.6618 72.0293 28.6618 70.6073V72.0293H0.5V69.1852H28.6393C28.6416 69.185 28.6512 69.1849 28.6677 69.1825C28.7039 69.177 28.7732 69.1638 28.8701 69.1325C29.0631 69.0701 29.3714 68.9338 29.76 68.6408C30.5309 68.0595 31.6638 66.8216 32.8382 64.165C34.0712 61.3756 34.8022 59.3041 35.221 57.9505C35.4305 57.2736 35.5622 56.7755 35.6395 56.4576C35.6779 56.2993 35.7025 56.1853 35.717 56.1159C35.7243 56.0814 35.7294 56.0574 35.7318 56.0451C35.7325 56.0414 35.7324 56.0384 35.7328 56.0368Z" fill="#6A59FF" stroke="black"/>
</svg>
